<svg xmlns="http://www.w3.org/2000/svg" fill="#000" stroke="#000" viewBox="0 0 1920 1920"><path d="M959 278c141 0 257-106 275-244a1148 1148 0 0 0-551 0 277 277 0 0 0 276 244ZM36 682a277 277 0 0 1 0 550 1088 1088 0 0 1 0-550Zm493 275a87 87 0 1 1-175 0 87 87 0 0 1 175 0Zm1113 0c0 142 106 258 244 275a1088 1088 0 0 0 0-550 277 277 0 0 0-244 275Zm-74 0a87 87 0 1 1-175 0 87 87 0 0 1 175 0Zm-609 684a277 277 0 0 0-276 243 1088 1088 0 0 0 551 0 277 277 0 0 0-275-243Zm87-161a87 87 0 1 1-175 0 87 87 0 0 1 175 0Zm0-1040a87 87 0 1 1-175 0 87 87 0 0 1 175 0Zm395 1000a278 278 0 0 0-22 367c160-95 295-229 388-388a275 275 0 0 0-366 21Zm-27-115a87 87 0 1 1-175 0 87 87 0 0 1 175 0ZM479 477a278 278 0 0 0 23-367c-161 95-296 230-389 389 108 86 265 77 366-22Zm200 113a87 87 0 1 1-175 0 87 87 0 0 1 175 0Zm761-114a278 278 0 0 0 367 23c-95-161-229-296-388-389a276 276 0 0 0 21 366Zm-26 114a87 87 0 1 1-175 0 87 87 0 0 1 175 0Zm-937 849a278 278 0 0 0-367-23c95 160 230 295 389 389 86-109 78-266-22-366Zm202-114a87 87 0 1 1-175 0 87 87 0 0 1 175 0Z"/></svg>